<svg width="16" height="16" viewBox="0 0 16 16" fill="none" xmlns="http://www.w3.org/2000/svg">
<path fill-rule="evenodd" clip-rule="evenodd" d="M3.41463 11.7986C3.17055 11.5546 3.17055 11.1588 3.41463 10.9147L6.72219 7.60669L3.41463 4.29863C3.18932 4.07333 3.17199 3.71881 3.36263 3.47363L3.41463 3.41475C3.6587 3.17067 4.05443 3.17067 4.29851 3.41475L7.60657 6.72231L10.9146 3.41474C11.1399 3.18944 11.4944 3.17211 11.7396 3.36275L11.7985 3.41474C12.0426 3.65882 12.0426 4.05455 11.7985 4.29863L8.49094 7.60669L11.7985 10.9147C12.0238 11.14 12.0411 11.4946 11.8505 11.7398L11.7985 11.7986C11.5544 12.0427 11.1587 12.0427 10.9146 11.7986L7.60657 8.49106L4.29851 11.7986C4.07321 12.0239 3.71869 12.0413 3.47351 11.8506L3.41463 11.7986Z" fill="#3CC8AE"/>
</svg>
