<svg width="24" height="24" viewBox="0 0 24 24" fill="none" xmlns="http://www.w3.org/2000/svg">
<path fill-rule="evenodd" clip-rule="evenodd" d="M12.7071 19.7071C12.3166 20.0976 11.6834 20.0976 11.2929 19.7071L4.29289 12.7071C4.26443 12.6786 4.23767 12.6485 4.21279 12.6167C4.20728 12.6098 4.20175 12.6026 4.19633 12.5953C4.17849 12.5711 4.16172 12.5463 4.14607 12.5207C4.13861 12.5086 4.1315 12.4964 4.12467 12.4841C4.11379 12.4643 4.10338 12.4439 4.09365 12.4231C4.08568 12.4061 4.0782 12.3888 4.07123 12.3713C4.06332 12.3516 4.05612 12.3318 4.04955 12.3117C4.04473 12.2969 4.0401 12.2815 4.03584 12.266C4.02983 12.2444 4.02464 12.2227 4.02016 12.2008C4.0167 12.1834 4.01363 12.1659 4.01102 12.1485C4.00376 12.1004 4 12.0506 4 12L4.00397 12.0893C4.00187 12.0657 4.0006 12.042 4.00017 12.0184L4 12C4 11.9935 4.00006 11.9871 4.00018 11.9807C4.00064 11.9573 4.0019 11.934 4.00397 11.9107C4.00575 11.8903 4.0081 11.8706 4.01102 11.851C4.01363 11.8341 4.0167 11.8166 4.02024 11.7993C4.02464 11.7773 4.02983 11.7556 4.03572 11.7342C4.0401 11.7185 4.04473 11.7031 4.04974 11.6879C4.05612 11.6682 4.06332 11.6484 4.0711 11.6289C4.0782 11.6112 4.08568 11.5939 4.09367 11.5768C4.10338 11.5561 4.11379 11.5357 4.12488 11.5157C4.1315 11.5036 4.13861 11.4914 4.146 11.4793C4.16172 11.4537 4.17849 11.4289 4.19631 11.4048C4.22531 11.3657 4.2575 11.3283 4.29289 11.2929L4.21279 11.3833C4.21507 11.3803 4.21737 11.3774 4.21969 11.3746L4.29289 11.2929L11.2929 4.29289C11.6834 3.90237 12.3166 3.90237 12.7071 4.29289C13.0976 4.68342 13.0976 5.31658 12.7071 5.70711L7.415 11L19 11C19.5128 11 19.9355 11.386 19.9933 11.8834L20 12C20 12.5523 19.5523 13 19 13L7.415 13L12.7071 18.2929C13.0676 18.6534 13.0953 19.2206 12.7903 19.6129L12.7071 19.7071Z" fill="#152739"/>
</svg>
