<svg width="25" height="24" viewBox="0 0 25 24" fill="none" xmlns="http://www.w3.org/2000/svg">
<path fill-rule="evenodd" clip-rule="evenodd" d="M11.1212 2C16.0702 2 20.0822 6.02944 20.0822 11C20.0822 13.1248 19.3491 15.0776 18.1231 16.6172L21.782 20.2929C22.1708 20.6834 22.1708 21.3166 21.782 21.7071C21.3931 22.0976 20.7627 22.0976 20.3739 21.7071L16.7141 18.0323C15.1811 19.2637 13.2368 20 11.1212 20C6.17215 20 2.16016 15.9706 2.16016 11C2.16016 6.02944 6.17215 2 11.1212 2ZM11.1212 4C7.27194 4 4.1515 7.13401 4.1515 11C4.1515 14.866 7.27194 18 11.1212 18C13.0035 18 14.7115 17.2506 15.9656 16.0326L16.0427 15.9429C16.071 15.9144 16.1006 15.888 16.1314 15.8637C17.3447 14.6059 18.0909 12.8905 18.0909 11C18.0909 7.13401 14.9705 4 11.1212 4Z" fill="#C5C7CD"/>
</svg>
